<svg xmlns="http://www.w3.org/2000/svg" xmlns:xlink="http://www.w3.org/1999/xlink" width="1000" zoomAndPan="magnify" viewBox="0 0 750 225" height="300" preserveAspectRatio="xMidYMid meet" version="1.0"><defs><g/><clipPath id="be43abaf45"><rect x="0" width="699" y="0" height="152"/></clipPath><clipPath id="475276f1aa"><path d="M 46 160 L 126 160 L 126 220.492188 L 46 220.492188 Z M 46 160 " clip-rule="nonzero"/></clipPath><clipPath id="fa64519b1a"><path d="M 24.808594 138.742188 L 724 138.742188 L 724 154 L 24.808594 154 Z M 24.808594 138.742188 " clip-rule="nonzero"/></clipPath><clipPath id="22ce091fca"><path d="M 72 160 L 153 160 L 153 220.492188 L 72 220.492188 Z M 72 160 " clip-rule="nonzero"/></clipPath><clipPath id="9dd60e459e"><path d="M 100 160 L 182 160 L 182 220.492188 L 100 220.492188 Z M 100 160 " clip-rule="nonzero"/></clipPath><clipPath id="1dda443f49"><path d="M 129 160 L 210 160 L 210 220.492188 L 129 220.492188 Z M 129 160 " clip-rule="nonzero"/></clipPath><clipPath id="4d12f9fca6"><path d="M 157 160 L 725.308594 160 L 725.308594 220.492188 L 157 220.492188 Z M 157 160 " clip-rule="nonzero"/></clipPath><clipPath id="edbac972ad"><path d="M 12 176 L 540 176 L 540 215 L 12 215 Z M 12 176 " clip-rule="nonzero"/></clipPath><clipPath id="8b26ed855c"><path d="M 11.589844 205.429688 L 539.527344 170.554688 L 540.539062 185.871094 L 12.601562 220.746094 Z M 11.589844 205.429688 " clip-rule="nonzero"/></clipPath><clipPath id="ba3273e462"><path d="M 275.535156 187.992188 C 129.765625 197.625 11.816406 208.859375 12.097656 213.089844 C 12.375 217.316406 130.777344 212.941406 276.546875 203.308594 C 422.320312 193.679688 540.265625 182.445312 539.988281 178.214844 C 539.707031 173.984375 421.308594 178.363281 275.535156 187.992188 Z M 275.535156 187.992188 " clip-rule="nonzero"/></clipPath><clipPath id="13abb242a6"><path d="M 0 0 L 528 0 L 528 39 L 0 39 Z M 0 0 " clip-rule="nonzero"/></clipPath><clipPath id="e0cff57c53"><path d="M -0.410156 29.429688 L 527.527344 -5.445312 L 528.539062 9.871094 L 0.601562 44.746094 Z M -0.410156 29.429688 " clip-rule="nonzero"/></clipPath><clipPath id="f3ecef8d50"><path d="M 263.535156 11.992188 C 117.765625 21.625 -0.183594 32.859375 0.0976562 37.089844 C 0.375 41.316406 118.777344 36.941406 264.546875 27.308594 C 410.320312 17.679688 528.265625 6.445312 527.988281 2.214844 C 527.707031 -2.015625 409.308594 2.363281 263.535156 11.992188 Z M 263.535156 11.992188 " clip-rule="nonzero"/></clipPath><clipPath id="94e5e8ad3d"><rect x="0" width="528" y="0" height="39"/></clipPath></defs><g transform="matrix(1, 0, 0, 1, 27, -0.000000000000008531)"><g clip-path="url(#be43abaf45)"><g fill="#000000" fill-opacity="1"><g transform="translate(2.288289, 109.236604)"><g><path d="M 112.078125 -84.609375 L 97.140625 0 L 76.53125 0 L 85.5625 -50.734375 L 57.609375 0 L 40.96875 0 L 30.859375 -50.984375 L 21.9375 0 L 1.328125 0 L 16.265625 -84.609375 L 40.609375 -84.609375 L 54.109375 -26.03125 L 87.859375 -84.609375 Z M 112.078125 -84.609375 "/></g></g></g><g fill="#000000" fill-opacity="1"><g transform="translate(105.674605, 109.236604)"><g><path d="M 32.0625 0.96875 C 26.269531 0.96875 21.125 -0.195312 16.625 -2.53125 C 12.125 -4.863281 8.648438 -8.15625 6.203125 -12.40625 C 3.753906 -16.664062 2.53125 -21.609375 2.53125 -27.234375 C 2.53125 -34.867188 4.335938 -41.816406 7.953125 -48.078125 C 11.566406 -54.347656 16.546875 -59.269531 22.890625 -62.84375 C 29.242188 -66.425781 36.316406 -68.21875 44.109375 -68.21875 C 49.890625 -68.21875 55.050781 -67.03125 59.59375 -64.65625 C 64.132812 -62.28125 67.648438 -58.960938 70.140625 -54.703125 C 72.628906 -50.453125 73.875 -45.515625 73.875 -39.890625 C 73.875 -32.179688 72.046875 -25.210938 68.390625 -18.984375 C 64.734375 -12.753906 59.710938 -7.867188 53.328125 -4.328125 C 46.941406 -0.796875 39.851562 0.96875 32.0625 0.96875 Z M 34.953125 -16.75 C 38.328125 -16.75 41.359375 -17.769531 44.046875 -19.8125 C 46.734375 -21.863281 48.820312 -24.515625 50.3125 -27.765625 C 51.800781 -31.023438 52.546875 -34.425781 52.546875 -37.96875 C 52.546875 -41.976562 51.457031 -45.066406 49.28125 -47.234375 C 47.113281 -49.410156 44.382812 -50.5 41.09375 -50.5 C 37.632812 -50.5 34.597656 -49.472656 31.984375 -47.421875 C 29.378906 -45.367188 27.351562 -42.695312 25.90625 -39.40625 C 24.457031 -36.113281 23.734375 -32.660156 23.734375 -29.046875 C 23.734375 -25.109375 24.78125 -22.070312 26.875 -19.9375 C 28.96875 -17.8125 31.660156 -16.75 34.953125 -16.75 Z M 34.953125 -16.75 "/></g></g></g><g fill="#000000" fill-opacity="1"><g transform="translate(175.2006, 109.236604)"><g><path d="M 29.28125 -23.140625 C 29.207031 -22.734375 29.171875 -22.210938 29.171875 -21.578125 C 29.171875 -20.128906 29.59375 -19.082031 30.4375 -18.4375 C 31.28125 -17.789062 32.664062 -17.46875 34.59375 -17.46875 L 41.9375 -17.46875 L 38.8125 0 L 28.328125 0 C 14.828125 0 8.078125 -5.664062 8.078125 -17 C 8.078125 -18.6875 8.273438 -20.8125 8.671875 -23.375 L 13.5 -50.140625 L 5.296875 -50.140625 L 8.3125 -67.25 L 16.515625 -67.25 L 19.40625 -83.640625 L 40.015625 -83.640625 L 37.125 -67.25 L 50.609375 -67.25 L 47.609375 -50.140625 L 34.109375 -50.140625 Z M 29.28125 -23.140625 "/></g></g></g><g fill="#000000" fill-opacity="1"><g transform="translate(216.89124, 109.236604)"><g><path d="M 32.0625 0.96875 C 26.269531 0.96875 21.125 -0.195312 16.625 -2.53125 C 12.125 -4.863281 8.648438 -8.15625 6.203125 -12.40625 C 3.753906 -16.664062 2.53125 -21.609375 2.53125 -27.234375 C 2.53125 -34.867188 4.335938 -41.816406 7.953125 -48.078125 C 11.566406 -54.347656 16.546875 -59.269531 22.890625 -62.84375 C 29.242188 -66.425781 36.316406 -68.21875 44.109375 -68.21875 C 49.890625 -68.21875 55.050781 -67.03125 59.59375 -64.65625 C 64.132812 -62.28125 67.648438 -58.960938 70.140625 -54.703125 C 72.628906 -50.453125 73.875 -45.515625 73.875 -39.890625 C 73.875 -32.179688 72.046875 -25.210938 68.390625 -18.984375 C 64.734375 -12.753906 59.710938 -7.867188 53.328125 -4.328125 C 46.941406 -0.796875 39.851562 0.96875 32.0625 0.96875 Z M 34.953125 -16.75 C 38.328125 -16.75 41.359375 -17.769531 44.046875 -19.8125 C 46.734375 -21.863281 48.820312 -24.515625 50.3125 -27.765625 C 51.800781 -31.023438 52.546875 -34.425781 52.546875 -37.96875 C 52.546875 -41.976562 51.457031 -45.066406 49.28125 -47.234375 C 47.113281 -49.410156 44.382812 -50.5 41.09375 -50.5 C 37.632812 -50.5 34.597656 -49.472656 31.984375 -47.421875 C 29.378906 -45.367188 27.351562 -42.695312 25.90625 -39.40625 C 24.457031 -36.113281 23.734375 -32.660156 23.734375 -29.046875 C 23.734375 -25.109375 24.78125 -22.070312 26.875 -19.9375 C 28.96875 -17.8125 31.660156 -16.75 34.953125 -16.75 Z M 34.953125 -16.75 "/></g></g></g><g fill="#000000" fill-opacity="1"><g transform="translate(286.417235, 109.236604)"><g><path d="M 62.1875 -50.859375 L 59.046875 -33.75 L 6.03125 -33.75 L 9.15625 -50.859375 Z M 62.1875 -50.859375 "/></g></g></g><g fill="#000000" fill-opacity="1"><g transform="translate(349.074768, 109.236604)"><g><path d="M 34.953125 0.84375 C 25.785156 0.84375 18.332031 -1.144531 12.59375 -5.125 C 6.851562 -9.101562 3.984375 -14.742188 3.984375 -22.046875 C 3.984375 -22.773438 4.0625 -23.863281 4.21875 -25.3125 L 25.671875 -25.3125 C 25.429688 -22.257812 26.15625 -19.847656 27.84375 -18.078125 C 29.53125 -16.304688 32.097656 -15.421875 35.546875 -15.421875 C 38.679688 -15.421875 41.148438 -16.101562 42.953125 -17.46875 C 44.765625 -18.84375 45.671875 -20.773438 45.671875 -23.265625 C 45.671875 -25.828125 44.523438 -27.910156 42.234375 -29.515625 C 39.953125 -31.128906 36.398438 -32.941406 31.578125 -34.953125 C 26.910156 -36.878906 23.109375 -38.707031 20.171875 -40.4375 C 17.242188 -42.164062 14.695312 -44.515625 12.53125 -47.484375 C 10.363281 -50.453125 9.28125 -54.1875 9.28125 -58.6875 C 9.195312 -64.226562 10.5625 -69.046875 13.375 -73.140625 C 16.1875 -77.242188 20.082031 -80.378906 25.0625 -82.546875 C 30.050781 -84.722656 35.757812 -85.8125 42.1875 -85.8125 C 47.96875 -85.8125 53.109375 -84.90625 57.609375 -83.09375 C 62.109375 -81.289062 65.601562 -78.679688 68.09375 -75.265625 C 70.582031 -71.847656 71.828125 -67.8125 71.828125 -63.15625 C 71.828125 -61.945312 71.785156 -61.0625 71.703125 -60.5 L 49.765625 -60.5 C 49.847656 -60.820312 49.890625 -61.300781 49.890625 -61.9375 C 49.890625 -64.1875 49.101562 -66.015625 47.53125 -67.421875 C 45.96875 -68.828125 43.820312 -69.53125 41.09375 -69.53125 C 38.195312 -69.53125 35.84375 -68.828125 34.03125 -67.421875 C 32.226562 -66.015625 31.328125 -64.109375 31.328125 -61.703125 C 31.328125 -59.296875 32.453125 -57.265625 34.703125 -55.609375 C 36.953125 -53.960938 40.445312 -52.054688 45.1875 -49.890625 C 49.925781 -47.722656 53.800781 -45.710938 56.8125 -43.859375 C 59.832031 -42.015625 62.425781 -39.546875 64.59375 -36.453125 C 66.757812 -33.359375 67.84375 -29.5625 67.84375 -25.0625 C 67.84375 -20.082031 66.515625 -15.625 63.859375 -11.6875 C 61.210938 -7.75 57.398438 -4.675781 52.421875 -2.46875 C 47.441406 -0.257812 41.617188 0.84375 34.953125 0.84375 Z M 34.953125 0.84375 "/></g></g></g><g fill="#000000" fill-opacity="1"><g transform="translate(416.793287, 109.236604)"><g><path d="M 43.265625 -68.21875 C 51.941406 -68.21875 58.832031 -65.863281 63.9375 -61.15625 C 69.039062 -56.457031 71.59375 -50.050781 71.59375 -41.9375 C 71.59375 -39.289062 71.390625 -36.921875 70.984375 -34.828125 C 70.660156 -32.984375 70.175781 -31.015625 69.53125 -28.921875 L 22.890625 -28.921875 C 22.816406 -28.441406 22.78125 -27.679688 22.78125 -26.640625 C 22.78125 -23.097656 23.742188 -20.398438 25.671875 -18.546875 C 27.597656 -16.703125 30.171875 -15.78125 33.390625 -15.78125 C 38.523438 -15.78125 42.457031 -17.953125 45.1875 -22.296875 L 67.125 -22.296875 C 64.226562 -15.460938 59.523438 -9.875 53.015625 -5.53125 C 46.515625 -1.195312 39.207031 0.96875 31.09375 0.96875 C 22.414062 0.96875 15.484375 -1.441406 10.296875 -6.265625 C 5.117188 -11.085938 2.53125 -17.632812 2.53125 -25.90625 C 2.53125 -28.394531 2.769531 -30.96875 3.25 -33.625 C 4.457031 -40.613281 6.945312 -46.71875 10.71875 -51.9375 C 14.5 -57.164062 19.203125 -61.1875 24.828125 -64 C 30.453125 -66.8125 36.597656 -68.21875 43.265625 -68.21875 Z M 50.734375 -39.40625 C 50.898438 -40.53125 50.984375 -41.296875 50.984375 -41.703125 C 50.984375 -44.910156 49.976562 -47.378906 47.96875 -49.109375 C 45.957031 -50.835938 43.304688 -51.703125 40.015625 -51.703125 C 36.472656 -51.703125 33.359375 -50.632812 30.671875 -48.5 C 27.984375 -46.375 26.035156 -43.34375 24.828125 -39.40625 Z M 50.734375 -39.40625 "/></g></g></g><g fill="#000000" fill-opacity="1"><g transform="translate(483.788824, 109.236604)"><g><path d="M 37.71875 -89.1875 L 21.9375 0 L 1.328125 0 L 17.109375 -89.1875 Z M 37.71875 -89.1875 "/></g></g></g><g fill="#000000" fill-opacity="1"><g transform="translate(512.104048, 109.236604)"><g><path d="M 43.265625 -68.21875 C 51.941406 -68.21875 58.832031 -65.863281 63.9375 -61.15625 C 69.039062 -56.457031 71.59375 -50.050781 71.59375 -41.9375 C 71.59375 -39.289062 71.390625 -36.921875 70.984375 -34.828125 C 70.660156 -32.984375 70.175781 -31.015625 69.53125 -28.921875 L 22.890625 -28.921875 C 22.816406 -28.441406 22.78125 -27.679688 22.78125 -26.640625 C 22.78125 -23.097656 23.742188 -20.398438 25.671875 -18.546875 C 27.597656 -16.703125 30.171875 -15.78125 33.390625 -15.78125 C 38.523438 -15.78125 42.457031 -17.953125 45.1875 -22.296875 L 67.125 -22.296875 C 64.226562 -15.460938 59.523438 -9.875 53.015625 -5.53125 C 46.515625 -1.195312 39.207031 0.96875 31.09375 0.96875 C 22.414062 0.96875 15.484375 -1.441406 10.296875 -6.265625 C 5.117188 -11.085938 2.53125 -17.632812 2.53125 -25.90625 C 2.53125 -28.394531 2.769531 -30.96875 3.25 -33.625 C 4.457031 -40.613281 6.945312 -46.71875 10.71875 -51.9375 C 14.5 -57.164062 19.203125 -61.1875 24.828125 -64 C 30.453125 -66.8125 36.597656 -68.21875 43.265625 -68.21875 Z M 50.734375 -39.40625 C 50.898438 -40.53125 50.984375 -41.296875 50.984375 -41.703125 C 50.984375 -44.910156 49.976562 -47.378906 47.96875 -49.109375 C 45.957031 -50.835938 43.304688 -51.703125 40.015625 -51.703125 C 36.472656 -51.703125 33.359375 -50.632812 30.671875 -48.5 C 27.984375 -46.375 26.035156 -43.34375 24.828125 -39.40625 Z M 50.734375 -39.40625 "/></g></g></g><g fill="#000000" fill-opacity="1"><g transform="translate(579.099585, 109.236604)"><g><path d="M 3.25 -33.625 C 4.457031 -40.613281 6.945312 -46.71875 10.71875 -51.9375 C 14.5 -57.164062 19.179688 -61.1875 24.765625 -64 C 30.347656 -66.8125 36.4375 -68.21875 43.03125 -68.21875 C 51.457031 -68.21875 58.117188 -66.003906 63.015625 -61.578125 C 67.921875 -57.160156 70.535156 -50.9375 70.859375 -42.90625 L 48.921875 -42.90625 C 48.046875 -48.039062 44.914062 -50.609375 39.53125 -50.609375 C 35.75 -50.609375 32.492188 -49.140625 29.765625 -46.203125 C 27.035156 -43.273438 25.1875 -39.082031 24.21875 -33.625 C 23.894531 -31.9375 23.734375 -30.171875 23.734375 -28.328125 C 23.734375 -24.546875 24.617188 -21.648438 26.390625 -19.640625 C 28.160156 -17.628906 30.570312 -16.625 33.625 -16.625 C 38.925781 -16.625 42.90625 -19.195312 45.5625 -24.34375 L 67.609375 -24.34375 C 64.472656 -16.46875 59.648438 -10.28125 53.140625 -5.78125 C 46.640625 -1.28125 39.210938 0.96875 30.859375 0.96875 C 22.179688 0.96875 15.289062 -1.421875 10.1875 -6.203125 C 5.082031 -10.984375 2.53125 -17.515625 2.53125 -25.796875 C 2.53125 -28.285156 2.769531 -30.894531 3.25 -33.625 Z M 3.25 -33.625 "/></g></g></g><g fill="#000000" fill-opacity="1"><g transform="translate(644.769601, 109.236604)"><g><path d="M 29.28125 -23.140625 C 29.207031 -22.734375 29.171875 -22.210938 29.171875 -21.578125 C 29.171875 -20.128906 29.59375 -19.082031 30.4375 -18.4375 C 31.28125 -17.789062 32.664062 -17.46875 34.59375 -17.46875 L 41.9375 -17.46875 L 38.8125 0 L 28.328125 0 C 14.828125 0 8.078125 -5.664062 8.078125 -17 C 8.078125 -18.6875 8.273438 -20.8125 8.671875 -23.375 L 13.5 -50.140625 L 5.296875 -50.140625 L 8.3125 -67.25 L 16.515625 -67.25 L 19.40625 -83.640625 L 40.015625 -83.640625 L 37.125 -67.25 L 50.609375 -67.25 L 47.609375 -50.140625 L 34.109375 -50.140625 Z M 29.28125 -23.140625 "/></g></g></g></g></g><g clip-path="url(#475276f1aa)"><path fill="#560591" d="M 64.796875 160.363281 L 125.070312 220.640625 L 106.605469 220.640625 L 46.328125 160.363281 Z M 64.796875 160.363281 " fill-opacity="1" fill-rule="nonzero"/></g><g clip-path="url(#fa64519b1a)"><path fill="#000000" d="M 723.984375 151.816406 L 39.054688 153.089844 L 24.808594 138.84375 Z M 723.984375 151.816406 " fill-opacity="1" fill-rule="nonzero"/></g><g clip-path="url(#22ce091fca)"><path fill="#560591" d="M 92.652344 160.363281 L 152.921875 220.640625 L 133.234375 220.640625 L 72.957031 160.363281 Z M 92.652344 160.363281 " fill-opacity="1" fill-rule="nonzero"/></g><g clip-path="url(#9dd60e459e)"><path fill="#560591" d="M 120.949219 160.363281 L 181.226562 220.640625 L 161.085938 220.640625 L 100.816406 160.363281 Z M 120.949219 160.363281 " fill-opacity="1" fill-rule="nonzero"/></g><g clip-path="url(#1dda443f49)"><path fill="#560591" d="M 148.953125 160.363281 L 209.226562 220.640625 L 189.386719 220.640625 L 129.113281 160.363281 Z M 148.953125 160.363281 " fill-opacity="1" fill-rule="nonzero"/></g><g clip-path="url(#4d12f9fca6)"><path fill="#560591" d="M 295.324219 188.433594 L 327.527344 220.640625 L 217.390625 220.640625 L 157.113281 160.363281 L 725.164062 160.363281 Z M 295.324219 188.433594 " fill-opacity="1" fill-rule="nonzero"/></g><g clip-path="url(#edbac972ad)"><g clip-path="url(#8b26ed855c)"><g clip-path="url(#ba3273e462)"><g transform="matrix(1, 0, 0, 1, 12, 176)"><g clip-path="url(#94e5e8ad3d)"><g clip-path="url(#13abb242a6)"><g clip-path="url(#e0cff57c53)"><g clip-path="url(#f3ecef8d50)"><path fill="#ffffff" d="M -0.410156 29.429688 L 527.464844 -5.441406 L 528.476562 9.875 L 0.601562 44.746094 Z M -0.410156 29.429688 " fill-opacity="1" fill-rule="nonzero"/></g></g></g></g></g></g></g></g></svg>